# xmcd
#
# Track frame offsets:
#	150
#	18682
#	38677
#	60451
#	79847
#	101056
#	122988
#	139996
#	157704
#	172203
#	195955
#	213480
#	232693
#	249248
#	267147
#	287083
#
# Disc length: 4080 seconds
#
# Revision: 2
# Processed by: cddbd v1.5.2PL0 Copyright (c) Steve Scherf et al.
# Submitted via: EZCDAudioConverter 1.3.4.1
#
DISCID=d70fee10
DTITLE=Belinda Carlisle - Heaven On Earth 1/2
DYEAR=1987
DGENRE=
TTITLE0=Heaven Is A Place On Earth
TTITLE1=Circle In The Sand
TTITLE2=I Feel Free
TTITLE3=Should I Let You In?
TTITLE4=World Without You
TTITLE5=I Get Weak
TTITLE6=We Can Change
TTITLE7=Fool For Love
TTITLE8=Nobody Owns Me
TTITLE9=Love Never Dies
TTITLE10=Heaven Is A Place On Earth [Promo 7'' Edit]
TTITLE11=I Get Weak [7'']
TTITLE12=Circle In The Sand [7'']
TTITLE13=World Without You [7'' Remix]
TTITLE14=I Feel Free [7'']
TTITLE15=Love Never Dies [7'']
EXTD=
EXTT0=
EXTT1=
EXTT2=
EXTT3=
EXTT4=
EXTT5=
EXTT6=
EXTT7=
EXTT8=
EXTT9=
EXTT10=
EXTT11=
EXTT12=
EXTT13=
EXTT14=
EXTT15=
PLAYORDER=
